<svg width="1280" height="720" viewBox="0 0 1280 720" fill="none" xmlns="http://www.w3.org/2000/svg">
  <defs>
    <linearGradient id="bg" x1="0" y1="0" x2="1280" y2="720" gradientUnits="userSpaceOnUse">
      <stop stop-color="#081222"/>
      <stop offset="1" stop-color="#0A1930"/>
    </linearGradient>
    <linearGradient id="sidebar" x1="0" y1="0" x2="280" y2="720" gradientUnits="userSpaceOnUse">
      <stop stop-color="#081120"/>
      <stop offset="1" stop-color="#0B1727"/>
    </linearGradient>
    <linearGradient id="card" x1="320" y1="132" x2="1190" y2="650" gradientUnits="userSpaceOnUse">
      <stop stop-color="#121C37"/>
      <stop offset="1" stop-color="#0F1730"/>
    </linearGradient>
    <linearGradient id="accent" x1="0" y1="0" x2="1" y2="1">
      <stop stop-color="#38BDF8"/>
      <stop offset="1" stop-color="#1D93E5"/>
    </linearGradient>
  </defs>
  <rect width="1280" height="720" fill="url(#bg)"/>
  <rect width="280" height="720" fill="url(#sidebar)"/>
  <rect x="340" y="48" width="908" height="148" rx="26" fill="url(#card)" stroke="#263654" stroke-width="2"/>
  <rect x="366" y="82" width="122" height="18" rx="9" fill="#1D93E5"/>
  <text x="366" y="138" fill="#F8FAFC" font-family="Inter, Arial, sans-serif" font-size="40" font-weight="700">Movimentacoes</text>
  <text x="366" y="170" fill="#94A3B8" font-family="Inter, Arial, sans-serif" font-size="18">Controle completo do fluxo de caixa</text>
  <rect x="1108" y="70" width="106" height="58" rx="18" fill="#0F1930" stroke="#263654" stroke-width="2"/>
  <text x="1161" y="106" text-anchor="middle" fill="#E2E8F0" font-family="Inter, Arial, sans-serif" font-size="16" font-weight="600">Fluxo</text>
  <rect x="340" y="230" width="540" height="424" rx="24" fill="#101A34" stroke="#263654" stroke-width="2"/>
  <rect x="916" y="230" width="332" height="424" rx="24" fill="#101A34" stroke="#263654" stroke-width="2"/>
  <text x="368" y="274" fill="#F8FAFC" font-family="Inter, Arial, sans-serif" font-size="24" font-weight="700">Lancamentos</text>
  <rect x="368" y="306" width="480" height="44" rx="16" fill="#1A2746"/>
  <rect x="368" y="360" width="480" height="44" rx="16" fill="#12213E"/>
  <rect x="368" y="414" width="480" height="44" rx="16" fill="#1A2746"/>
  <rect x="368" y="468" width="480" height="44" rx="16" fill="#12213E"/>
  <rect x="368" y="522" width="480" height="44" rx="16" fill="#1A2746"/>
  <rect x="368" y="576" width="480" height="44" rx="16" fill="#12213E"/>
  <rect x="380" y="316" width="122" height="24" rx="10" fill="#F59E0B"/>
  <rect x="510" y="316" width="72" height="24" rx="10" fill="#1D93E5"/>
  <rect x="590" y="316" width="102" height="24" rx="10" fill="#10B981"/>
  <rect x="700" y="316" width="124" height="24" rx="10" fill="#EF4444"/>
  <text x="386" y="458" fill="#D8E6FF" font-family="Inter, Arial, sans-serif" font-size="14">Hospedagem</text>
  <text x="386" y="512" fill="#D8E6FF" font-family="Inter, Arial, sans-serif" font-size="14">Pagamento</text>
  <text x="386" y="566" fill="#D8E6FF" font-family="Inter, Arial, sans-serif" font-size="14">Freelance</text>
  <text x="386" y="620" fill="#D8E6FF" font-family="Inter, Arial, sans-serif" font-size="14">Alimentacao</text>
  <text x="386" y="350" fill="#D8E6FF" font-family="Inter, Arial, sans-serif" font-size="14">Despesa</text>
  <text x="520" y="350" fill="#D8E6FF" font-family="Inter, Arial, sans-serif" font-size="14">Conta</text>
  <text x="600" y="350" fill="#0B1020" font-family="Inter, Arial, sans-serif" font-size="14">Categoria</text>
  <text x="710" y="350" fill="#FFFFFF" font-family="Inter, Arial, sans-serif" font-size="14">Status</text>
  <text x="940" y="274" fill="#F8FAFC" font-family="Inter, Arial, sans-serif" font-size="24" font-weight="700">Novo lancamento</text>
  <rect x="940" y="306" width="248" height="56" rx="16" fill="#0B1327" stroke="#2A3B59" stroke-width="2"/>
  <text x="962" y="340" fill="#7183A4" font-family="Inter, Arial, sans-serif" font-size="16">Ex.: Hospedagem</text>
  <rect x="940" y="376" width="248" height="56" rx="16" fill="#0B1327" stroke="#2A3B59" stroke-width="2"/>
  <text x="962" y="410" fill="#7183A4" font-family="Inter, Arial, sans-serif" font-size="16">R$ 0,00</text>
  <rect x="940" y="446" width="248" height="56" rx="16" fill="#0B1327" stroke="#2A3B59" stroke-width="2"/>
  <text x="962" y="480" fill="#FFFFFF" font-family="Inter, Arial, sans-serif" font-size="16">Despesa</text>
  <rect x="940" y="516" width="248" height="56" rx="16" fill="#0B1327" stroke="#2A3B59" stroke-width="2"/>
  <text x="962" y="550" fill="#FFFFFF" font-family="Inter, Arial, sans-serif" font-size="16">Selecione uma conta</text>
  <rect x="940" y="586" width="248" height="56" rx="16" fill="url(#accent)"/>
  <text x="1064" y="620" text-anchor="middle" fill="#FFFFFF" font-family="Inter, Arial, sans-serif" font-size="18" font-weight="700">Salvar lancamento</text>
</svg>
