<svg width="1280" height="720" viewBox="0 0 1280 720" fill="none" xmlns="http://www.w3.org/2000/svg">
  <defs>
    <linearGradient id="bg" x1="0" y1="0" x2="1280" y2="720" gradientUnits="userSpaceOnUse">
      <stop stop-color="#0A1020"/>
      <stop offset="1" stop-color="#081827"/>
    </linearGradient>
    <linearGradient id="panel" x1="360" y1="120" x2="920" y2="600" gradientUnits="userSpaceOnUse">
      <stop stop-color="#111A33"/>
      <stop offset="1" stop-color="#0E1730"/>
    </linearGradient>
    <linearGradient id="button" x1="480" y1="492" x2="800" y2="560" gradientUnits="userSpaceOnUse">
      <stop stop-color="#36B9F7"/>
      <stop offset="1" stop-color="#1D93E5"/>
    </linearGradient>
  </defs>
  <rect width="1280" height="720" fill="url(#bg)"/>
  <circle cx="1180" cy="100" r="180" fill="#1B6A8A" fill-opacity="0.12"/>
  <circle cx="120" cy="620" r="220" fill="#1D93E5" fill-opacity="0.08"/>
  <rect x="330" y="94" width="620" height="532" rx="30" fill="url(#panel)" stroke="#243250" stroke-width="2"/>
  <rect x="386" y="154" width="116" height="116" rx="26" fill="#14213F" stroke="#28405E" stroke-width="2"/>
  <path d="M419 207L441 185L463 207" stroke="#36B9F7" stroke-width="10" stroke-linecap="round" stroke-linejoin="round"/>
  <path d="M419 232L441 210L463 232" stroke="#A7F3D0" stroke-width="10" stroke-linecap="round" stroke-linejoin="round"/>
  <text x="532" y="190" fill="#F8FAFC" font-family="Inter, Arial, sans-serif" font-size="42" font-weight="700">Finansync</text>
  <text x="532" y="232" fill="#A7B3CC" font-family="Inter, Arial, sans-serif" font-size="22">Gestão financeira inteligente</text>
  <rect x="386" y="306" width="508" height="58" rx="16" fill="#0B1327" stroke="#2A3B59" stroke-width="2"/>
  <text x="408" y="342" fill="#7183A4" font-family="Inter, Arial, sans-serif" font-size="20">E-mail</text>
  <rect x="386" y="382" width="508" height="58" rx="16" fill="#0B1327" stroke="#2A3B59" stroke-width="2"/>
  <text x="408" y="418" fill="#7183A4" font-family="Inter, Arial, sans-serif" font-size="20">Senha</text>
  <rect x="386" y="492" width="508" height="62" rx="18" fill="url(#button)"/>
  <text x="640" y="532" text-anchor="middle" fill="#FFFFFF" font-family="Inter, Arial, sans-serif" font-size="22" font-weight="700">Entrar</text>
  <rect x="386" y="574" width="240" height="50" rx="16" fill="#0E1730" stroke="#2A3B59" stroke-width="2"/>
  <text x="506" y="606" text-anchor="middle" fill="#D7E7FF" font-family="Inter, Arial, sans-serif" font-size="18" font-weight="600">Usar demonstração</text>
  <rect x="654" y="574" width="240" height="50" rx="16" fill="#0E1730" stroke="#2A3B59" stroke-width="2"/>
  <text x="774" y="606" text-anchor="middle" fill="#D7E7FF" font-family="Inter, Arial, sans-serif" font-size="18" font-weight="600">Criar conta</text>
</svg>
